<svg id="visual" viewBox="0 0 900 600" width="900" height="600" xmlns="http://www.w3.org/2000/svg" xmlns:xlink="http://www.w3.org/1999/xlink" version="1.1"><rect x="0" y="0" width="900" height="600" fill="#FFFFF0"></rect><defs><linearGradient id="grad1_0" x1="33.3%" y1="0%" x2="100%" y2="100%"><stop offset="20%" stop-color="#fffff0" stop-opacity="1"></stop><stop offset="80%" stop-color="#fffff0" stop-opacity="1"></stop></linearGradient></defs><defs><linearGradient id="grad2_0" x1="0%" y1="0%" x2="66.7%" y2="100%"><stop offset="20%" stop-color="#fffff0" stop-opacity="1"></stop><stop offset="80%" stop-color="#fffff0" stop-opacity="1"></stop></linearGradient></defs><g transform="translate(900, 0)"><path d="M0 324.5C-37.2 326.5 -74.5 328.4 -100.3 308.6C-126.1 288.8 -140.4 247.2 -159.9 220.1C-179.4 192.9 -204 180 -220.1 159.9C-236.1 139.7 -243.7 112.2 -259.6 84.4C-275.6 56.5 -300.1 28.2 -324.5 0L0 0Z" fill="#30df36"></path></g><g transform="translate(0, 600)"><path d="M0 -324.5C34.5 -323.5 69 -322.6 100.3 -308.6C131.5 -294.7 159.5 -267.7 171 -235.4C182.6 -203.2 177.8 -165.6 197.4 -143.4C217 -121.2 261 -114.4 286.3 -93C311.5 -71.7 318 -35.8 324.5 0L0 0Z" fill="#30df36"></path></g></svg>